<svg
     version="1.1"
     xmlns="http://www.w3.org/2000/svg"
     xmlns:xlink="http://www.w3.org/1999/xlink"
     x="0px"
     y="0px"
     viewBox="0 0 270 180"
     enable-background="new 0 0 270 180"
     xml:space="preserve"
     preserveAspectRatio="none slice" >
  <path
        d="m 0,0 225,0 0,45 -135,0 0,135 -45,0 0,-135 -45,0 z" fill="#04bfbf" stroke="black" />
  <path
        d="m 90,180 0,-135 135,0 0,56.25 -45,0 0,-33.75 -45,0 0,90 45,0 0,-33.75 45,0 0,56.25 z" fill="#f7e967" stroke="black" />
  <path
        d="m 270,45 -45,0 0,56.25 -45,0 0,-33.75 -45,0 0,90 45,0 0,-33.75 45,0 0,56.25 45,0 z" fill="#a9cf54" stroke="black" />
</svg>
